#N canvas 57 65 1223 625 10;
#X msg 66 201 disconnect;
#X msg 73 259 format 16bit;
#X msg 519 61 print;
#X text 550 84 get information;
#X text 67 444 get information;
#X obj 42 443 bng 15 250 50 0 empty empty empty 0 -6 0 8 -262144 -1
-1;
#X msg 471 16 buffer 0.1;
#X msg 492 36 buffer 1;
#X obj 40 398 s \$0-nstream~;
#X msg 176 288 1;
#X msg 176 315 channels \$1;
#X obj 220 425 r \$0-nstream~;
#X obj 519 179 dac~;
#X obj 440 265 metro 250;
#X obj 440 426 osc~;
#X obj 440 368 + 1;
#X obj 440 326 f 0;
#X obj 487 358 + 1;
#X obj 487 299 mod 4;
#X obj 440 398 * 440;
#X obj 440 228 tgl 15 0 empty empty empty 0 -6 0 10 -262144 -1 -1 1
1;
#X obj 331 323 f 0;
#X obj 331 422 osc~;
#X obj 331 368 + 3;
#X obj 331 399 * 88;
#X obj 331 270 metro 888;
#X obj 378 296 mod 6;
#X obj 378 356 + 5;
#X obj 385 108 loadbang;
#X obj 308 153 del 1000;
#X msg 308 175 \; pd dsp 1;
#X obj 76 23 r \$0-connect;
#X obj 40 74 del 200;
#X msg 207 235 buffersize \$1;
#X msg 205 160 64;
#X msg 568 14 buffer 0.5;
#X msg 664 13 buffer 0.2;
#X floatatom 675 328 5 0 0 0 - - -;
#X floatatom 699 310 5 0 0 0 - - -;
#X floatatom 734 294 5 0 0 0 - - -;
#X floatatom 765 378 5 0 0 0 - - -;
#X floatatom 789 356 5 0 0 0 - - -;
#X floatatom 824 336 5 0 0 0 - - -;
#X symbolatom 644 349 10 0 0 0 format - -;
#X obj 644 301 symbol;
#X obj 952 145 print netrec_NEW_MESS;
#X floatatom 874 345 5 0 0 0 - - -;
#X symbolatom 888 321 10 0 0 0 - - -;
#X obj 887 297 symbol;
#X obj 438 506 nstream~ 1 1;
#X obj 516 117 nsreceive~ 3000 1 1;
#X obj 779 556 print stats;
#X floatatom 923 410 5 0 1e+11 0 - - -;
#X floatatom 937 454 5 0 1e+11 0 - - -;
#X floatatom 970 405 5 0 1e+11 0 - - -;
#X floatatom 1012 404 5 0 1e+11 0 - - -;
#X obj 644 245 route format channels framesize overflow underflow queuesize
average bitrate date avdatathrp datathrp avlosses losses jitter;
#X floatatom 1034 366 5 0 1e+11 0 - - -;
#X obj 788 491 pack s 0 0 0 0 0 0 0 0 0 0;
#X text 776 285 comment;
#X text 807 378 comment;
#X text 714 347 comment;
#X text 714 327 comment;
#X text 741 305 comment;
#X text 643 444 comment;
#X text 926 317 comment;
#X text 1031 378 comment;
#X text 1009 416 comment;
#X text 653 515 1-date 2-overflow 3-underflow 4-queuesize 5-average
6-bitrate 7-date 8-avdatathrp 9-datathrp 10-avlosses 11-losses 12-jitter
;
#X obj 517 533 tgl 15 0 empty empty empty 0 -6 0 8 -262144 -1 -1 0
1;
#X obj 284 21 bng 15 250 50 0 empty empty empty 17 7 0 10 -262144 -1
-1;
#X obj 284 47 s \$0-connect;
#X msg 89 483 format 8bit;
#X msg 39 525 format float;
#X msg 214 193 1024;
#X obj 437 457 *~ 0.001;
#X msg 149 515 format 16bit;
#X msg 53 102 connect tecra 3000;
#X msg 245 162 128;
#X connect 0 0 8 0;
#X connect 1 0 8 0;
#X connect 2 0 50 0;
#X connect 5 0 8 0;
#X connect 6 0 50 0;
#X connect 7 0 50 0;
#X connect 9 0 10 0;
#X connect 10 0 8 0;
#X connect 11 0 49 0;
#X connect 13 0 16 0;
#X connect 14 0 75 0;
#X connect 15 0 19 0;
#X connect 16 0 17 0;
#X connect 16 0 15 0;
#X connect 17 0 18 0;
#X connect 18 0 16 1;
#X connect 19 0 14 0;
#X connect 20 0 13 0;
#X connect 20 0 25 0;
#X connect 21 0 23 0;
#X connect 21 0 27 0;
#X connect 22 0 75 0;
#X connect 23 0 24 0;
#X connect 24 0 22 0;
#X connect 25 0 21 0;
#X connect 26 0 21 1;
#X connect 27 0 26 0;
#X connect 28 0 29 0;
#X connect 28 0 20 0;
#X connect 29 0 30 0;
#X connect 31 0 32 0;
#X connect 31 0 9 0;
#X connect 31 0 1 0;
#X connect 31 0 78 0;
#X connect 32 0 77 0;
#X connect 33 0 8 0;
#X connect 34 0 33 0;
#X connect 35 0 50 0;
#X connect 36 0 50 0;
#X connect 39 0 58 1;
#X connect 40 0 58 2;
#X connect 41 0 58 3;
#X connect 42 0 58 4;
#X connect 44 0 43 0;
#X connect 46 0 58 5;
#X connect 47 0 58 0;
#X connect 48 0 47 0;
#X connect 49 1 69 0;
#X connect 50 0 12 0;
#X connect 50 0 12 1;
#X connect 50 1 56 0;
#X connect 52 0 58 6;
#X connect 53 0 58 7;
#X connect 54 0 58 8;
#X connect 55 0 58 9;
#X connect 56 0 44 0;
#X connect 56 1 37 0;
#X connect 56 2 38 0;
#X connect 56 3 39 0;
#X connect 56 4 40 0;
#X connect 56 5 41 0;
#X connect 56 6 42 0;
#X connect 56 7 46 0;
#X connect 56 8 48 0;
#X connect 56 9 52 0;
#X connect 56 10 53 0;
#X connect 56 11 54 0;
#X connect 56 12 55 0;
#X connect 56 13 57 0;
#X connect 56 14 45 0;
#X connect 57 0 58 10;
#X connect 58 0 51 0;
#X connect 70 0 71 0;
#X connect 72 0 8 0;
#X connect 73 0 8 0;
#X connect 74 0 33 0;
#X connect 75 0 49 0;
#X connect 76 0 8 0;
#X connect 77 0 8 0;
#X connect 78 0 33 0;
